<svg xmlns="http://www.w3.org/2000/svg" version="1.1" xmlns:xlink="http://www.w3.org/1999/xlink" xmlns:svgjs="http://svgjs.dev/svgjs" width="1440" height="560" preserveAspectRatio="none" viewBox="0 0 1440 560">
	<g mask="url(&quot;#SvgjsMask4460&quot;)" fill="none">
		<rect width="1440" height="560" x="0" y="0" fill="url(&quot;#SvgjsRadialGradient4461&quot;)"></rect>
		<path d="M1440 0L953.46 0L1440 264.45z" fill="rgba(255, 255, 255, .1)"></path>
		<path d="M953.46 0L1440 264.45L1440 316.58L909.59 0z" fill="rgba(255, 255, 255, .075)"></path>
		<path d="M909.59 0L1440 316.58L1440 445.9L490.76000000000005 0z" fill="rgba(255, 255, 255, .05)"></path>
		<path d="M490.76 0L1440 445.9L1440 470.22999999999996L151.64 0z" fill="rgba(255, 255, 255, .025)"></path>
		<path d="M0 560L286.45 560L0 285.07z" fill="rgba(0, 0, 0, .1)"></path>
		<path d="M0 285.07L286.45 560L523.8 560L0 219.01999999999998z" fill="rgba(0, 0, 0, .075)"></path>
		<path d="M0 219.01999999999998L523.8 560L619.4699999999999 560L0 112.41999999999999z" fill="rgba(0, 0, 0, .05)"></path>
		<path d="M0 112.41999999999996L619.4699999999999 560L791.0899999999999 560L0 99.96999999999996z" fill="rgba(0, 0, 0, .025)"></path>
	</g>
	<defs>
		<mask id="SvgjsMask4460">
			<rect width="1440" height="560" fill="#ffffff"></rect>
		</mask>
		<radialGradient cx="50%" cy="50%" r="772.53" gradientUnits="userSpaceOnUse" id="SvgjsRadialGradient4461">
			<stop stop-color="rgba(255, 245, 245, 1)" offset="0"></stop>
			<stop stop-color="rgba(0, 0, 0, 0.97)" offset="1"></stop>
		</radialGradient>
	</defs>
</svg>