<svg xmlns="http://www.w3.org/2000/svg" version="1.1" xmlns:xlink="http://www.w3.org/1999/xlink" xmlns:svgjs="http://svgjs.dev/svgjs" width="1440" height="560" preserveAspectRatio="none" viewBox="0 0 1440 560">
    <g mask="url(&quot;#SvgjsMask7104&quot;)" fill="none">
        <rect width="1440" height="560" x="0" y="0" fill="url(&quot;#SvgjsLinearGradient7105&quot;)"></rect>
        <path d="M30 560L590 0L837.5 0L277.5 560z" fill="url(&quot;#SvgjsLinearGradient7106&quot;)"></path>
        <path d="M327.8 560L887.8 0L937.3 0L377.3 560z" fill="url(&quot;#SvgjsLinearGradient7106&quot;)"></path>
        <path d="M652.6 560L1212.6 0L1262.1 0L702.1 560z" fill="url(&quot;#SvgjsLinearGradient7106&quot;)"></path>
        <path d="M1434 560L874 0L400 0L960 560z" fill="url(&quot;#SvgjsLinearGradient7107&quot;)"></path>
        <path d="M1069.2 560L509.20000000000005 0L101.20000000000005 0L661.2 560z" fill="url(&quot;#SvgjsLinearGradient7107&quot;)"></path>
        <path d="M805.4 560L245.39999999999998 0L63.89999999999998 0L623.9 560z" fill="url(&quot;#SvgjsLinearGradient7107&quot;)"></path>
        <path d="M1135.1547601971993 560L1440 255.15476019719927L1440 560z" fill="url(&quot;#SvgjsLinearGradient7106&quot;)"></path>
        <path d="M0 560L304.84523980280073 560L 0 255.15476019719927z" fill="url(&quot;#SvgjsLinearGradient7107&quot;)"></path>
    </g>
    <defs>
        <mask id="SvgjsMask7104">
            <rect width="1440" height="560" fill="#ffffff"></rect>
        </mask>
        <linearGradient x1="50%" y1="100%" x2="50%" y2="0%" gradientUnits="userSpaceOnUse" id="SvgjsLinearGradient7105">
            <stop stop-color="rgba(0, 0, 0, 1)" offset="0.87"></stop>
            <stop stop-color="rgba(227, 175, 55, 1)" offset="1"></stop>
        </linearGradient>
        <linearGradient x1="0%" y1="100%" x2="100%" y2="0%" id="SvgjsLinearGradient7106">
            <stop stop-color="rgba(0, 0, 0, 1)" offset="0"></stop>
            <stop stop-opacity="0" stop-color="rgba(0, 0, 0, 1)" offset="0.66"></stop>
        </linearGradient>
        <linearGradient x1="100%" y1="100%" x2="0%" y2="0%" id="SvgjsLinearGradient7107">
            <stop stop-color="rgba(0, 0, 0, 1)" offset="0"></stop>
            <stop stop-opacity="0" stop-color="rgba(0, 0, 0, 1)" offset="0.66"></stop>
        </linearGradient>
    </defs>
</svg>